<svg version="1" xmlns="http://www.w3.org/2000/svg" width="852" height="852" viewBox="0 0 639.000000 639.000000"><path d="M319.5 51.7c-6.1.9-4.2 1.8 2.8 1.5 4-.2 9.1.1 11.2.7 4.4 1.2 6.1.6 2.3-.8-3.1-1.2-12.3-1.9-16.3-1.4zM287.9 55.4c.9 1.1.9 2.5.1 5.6-1.1 4.1-1.2 4.2-4.5 3.6-4.5-.9-12.5-4.4-12.5-5.6 0-.5.5-1.2 1-1.5.6-.3 1-1.2 1-1.8 0-.7-.7-.3-1.5.7-.9 1.2-2.6 1.9-4.5 1.8-3.4-.1-4 1.3-1 2.3 3 1 1.4 2.5-2.7 2.5-4.9 0-10 2.7-15 7.9-2.4 2.5-4.3 4.1-4.3 3.6 0-.4.8-1.4 1.8-2.2 1.6-1.4 1.6-1.4 0-.9-4.2 1.3-1.3-2.7 5.4-7.4 4.6-3.3 6.4-5 5.1-5-3.3 0-10.5 5.7-15.8 12.5-2.7 3.5-5.9 6.6-7 6.9-1.1.3-3.6 2-5.5 3.7-1.9 1.7-5.7 4.9-8.5 6.9-2.7 2.1-6.8 5.6-9 7.9-2.1 2.3-4.6 4.1-5.5 4.1-.9 0-2.5.6-3.5 1.4-1.7 1.2-2.3 1.1-4.7-.7-1.5-1.1-3-1.8-3.4-1.5-.3.3 1.1 1.8 3 3.3 2 1.5 3.6 3.3 3.6 4 0 1.9-3.2 4.2-6.7 5-3.5.7-4.5 2.4-1.5 2.6 1.3 0 1.4.2.2.6-.8.4-2.3 1.7-3.4 3-1 1.3-2.5 2.2-3.2 1.9-1-.4-1.4.2-1.4 1.9 0 1.8.4 2.3 1.5 1.9 1.7-.7 2.1 2.1.5 3.1-.5.3-1 1.5-1 2.6s-.6 2.2-1.4 2.5c-.7.3-2.1 3.3-3.2 6.7-1 3.4-3.1 8-4.6 10.1-1.5 2.1-2.8 5.1-2.8 6.6 0 1.4-.5 3.1-1 3.6-.7.7-.7 2.6 0 6 1.8 8.3 2.9 17.8 2.3 18.8-.3.5-.1.6.6.2.6-.4 1.4 0 1.7 1.1 1.8 5.7 4.1 9.6 7.1 12.2 3.8 3.3 4.7 6 5.8 17.8.4 4 1.1 7.3 1.6 7.3 1.3 0 1.5-1 2.8-14.5 1.1-12.2 2.8-20 5.9-26.7 1.8-4 3.3-4.5 8.8-2.9 2.8.8 3.1.7 2.7-1-.5-1.6.1-1.8 5.3-1.8 3.3 0 7.7-.1 9.9-.2 2.4-.1 6.7.9 10.5 2.4 3.6 1.4 7.7 2.8 9.2 2.9 1.5.2 3 .7 3.4 1.1.4.4 2.2.4 4 .1 2.5-.5 4.6.1 9.3 2.6 3.4 1.8 6.1 3.9 6.1 4.6 0 .8.4 1.4.9 1.4.4 0 2.8 1.8 5.2 3.9 5.8 5.1 10 12.8 10 18.3.1 2.4.6 6.3 1.1 8.7.9 3.4 1.7 4.5 4 5.3 2.8 1 3.2 1.9 2.9 7.2-.1 1.6.4 3.5 1 4.2.6.8.8 1.4.4 1.4-.5 0-.1.8.7 1.7.8 1 1.8 2.6 2.1 3.5.4 1.2 1.7 1.8 3.9 1.8 3.8.1 7.3 3.9 6.5 7-.3 1.1.1 2.1.9 2.4 2.2.8 1.6 3.4-.8 3.8-1.3.2-2.2.9-2 1.6.1.8-1 1.2-3.2 1.2-1.9 0-6.3.9-9.8 2-3.4 1.1-7.3 2-8.5 2-1.2 0-2.4.4-2.7.9-.6.9-9.4 2.8-16.1 3.5-2.2.3-5.1.7-6.5 1.1-4.1 1-13 5.9-13 7.1 0 .7 1.4 2.7 3.1 4.5 2.6 2.8 3 3.9 2.8 7.8-.2 2.5.1 6.1.5 7.8.6 2.8 1.2 3.3 3.8 3.3 2.6 0 2.9-.2 1.8-1.5-1-1.2-.8-2 1.2-4.4 3.2-4 6.2-4.7 9.8-2.1 2.7 1.9 3.2 2 5.1.7 1.1-.8 1.6-1.6 1-1.8-1.5-.5-.2-4.9 1.5-4.9.7 0 1.9.9 2.7 2.1.8 1.1 1.7 1.7 2 1.2.3-.4 4.7-.8 9.9-.8 7.6 0 9.3.3 9.3 1.5s-1.3 1.5-5.9 1.4c-4.3-.1-5.5.1-4.2.8.9.5 8.4.8 17.5.6 15.4-.4 15.9-.5 19-3 1.7-1.5 4-2.9 5.1-3.3 1.1-.3 2-1.1 2-1.6 0-2 6.9-.9 9.5 1.5 2.2 2 2.5 2.8 1.6 4.5-.6 1.1-1.1 2.9-1.1 4 0 1.2-.7 2.1-1.5 2.1s-1.5.4-1.5 1c0 1.7-7.4 10-9 10-.5 0-1 .6-1 1.3 0 .8-1.5 2.7-3.2 4.3-2.7 2.4-3 2.9-1.5 3.2 2.1.4 2.2 1.8.1 2.6-.8.3-1.3 1-.9 1.5.3.6-.3 1.4-1.2 2-1 .6-1.2 1.1-.5 1.1.6 0 1.2.5 1.2 1.1 0 .5-.4.8-.9.5-1-.7-3.1 3.7-3.1 6.7 0 1.8-.2 1.9-1 .7s-1-.9-1.1 1.2c-.2 4.2-.2 4.1-3.6 7.8-1.8 1.9-3.3 3.8-3.3 4.2 0 .4-.9 1-2 1.3-1.1.4-1.8 1.1-1.5 1.6.4.5-.3.9-1.4.9-2.7 0-3.5 1.7-1.4 2.9 2.6 1.4-10.8.6-13.5-.8-1.1-.6-3-1.1-4.1-1.1-1.4 0-2.1-.6-2.1-2 0-2.3-5-12-6.2-12-.4 0-1.6-1.9-2.7-4.3-2.5-5.4-7.4-10.7-9.9-10.7-1.3 0-1.9-.6-1.8-1.7 0-1.2-.7-1.9-2.1-2.1-2.6-.4-2.9-1.2-1.1-3 .9-.9.9-1.5.1-2.3-1.5-1.5-3.4-.3-2.6 1.6.3.8 0 1.5-.6 1.5s-1.1-.9-1.1-1.9c0-1.1-.4-2.3-1-2.6-.5-.3-1-.1-1 .4 0 1.6-3.1 1.3-5-.4-3.2-2.9-8.1 1.5-6 5.4 1.5 2.9 1.2 5.1-.7 5.1-1.6.1-1.6.2-.2 1.3 1.1.9 1.3 2.1.8 4.7-.4 1.9-.6 3.7-.4 4.1.3.3-.7 1.2-2 1.9-2.6 1.4-3.1 3.5-1.5 6 .5.8.5 1.9.1 2.5-1 1.2-.8 4.5.3 6.3.4.6.2 1.2-.3 1.2-.6 0-1.1.6-1.1 1.4 0 .7-.7 1.9-1.5 2.6-.8.7-1.2 1.7-.8 2.3.4.6 0 .8-1 .4-.9-.3-2.8 0-4.2.7-2.1 1.1-2.3 1.5-1.1 2.5.8.7 4.1 1.5 7.3 1.8 3.2.3 7.6 1.3 9.8 2.2 2.2 1 6.7 2.6 10 3.7 5.3 1.7 5.7 1.9 3 2.2-1.6.2-3.4.7-4 1.2-.5.5-3.8 1.4-7.2 2.1-5.3 1.1-6.7 1.1-10.2-.3-4.5-1.8-5.2-.9-2.1 2.2 1.1 1.1 2 2.4 2 3 0 2 4.3 3.2 9.8 2.6 5.9-.5 14.3 1.1 14.9 2.9.8 2.7-15.5 4-22.7 1.9-2.3-.7-2.4-.6-1.1 1 .8.9 2.7 2.4 4.3 3.2 3.6 1.8 3.6 3.4.1 3.4h-2.7l2 2c1.3 1.3 4.9 2.6 10.4 3.6 4.7.9 9.4 2.1 10.5 2.7 1.1.6 2.5 1 3.1.9.6-.1 1.7.5 2.4 1.3s2.7 1.5 4.6 1.5c1.8 0 3.6.4 3.9 1 .3.5.1 1-.4 1-.6 0-1.1.7-1.1 1.5s-.7 1.5-1.5 1.5c-.9 0-1.8.7-2.1 1.5-.3.8-1.4 1.7-2.5 2-1.1.4-1.7 1-1.4 1.5 1.3 2-6.8 8-10.8 8-1.5 0-3 .7-3.3 1.5-.4.8-1.7 1.5-3 1.5s-2.4.4-2.4.9c0 1.5-5.4-.1-8.7-2.6-1.8-1.3-4.8-5.2-6.8-8.7-2.9-5.2-3.9-6.3-5.5-5.9-2.3.6-2.5 0-.8-2.6.9-1.5.7-2.5-1.3-5.2-3-4.3-5.5-8.5-7.4-12.6-.8-1.7-1.9-3.4-2.5-3.8-.5-.3-1-1.4-1.1-2.3 0-.9-1.4-3.7-2.9-6.2-1.6-2.5-5.2-9.1-8-14.8-2.8-5.6-5.2-10.2-5.4-10.2-1.6 0-12 3.8-18 6.5-4.1 1.9-10.1 4.2-13.1 5-8.3 2.4-19.8 8-29 14.1-4.5 2.9-11.3 6.5-15.1 7.9-14.7 5.5-38.3 18.2-47.3 25.5-1.4 1.1-2.9 2-3.4 2s-.7.9-.4 2c.5 1.9-.6 6.6-2.4 10.2-.5 1-.9 2.4-.9 3.1 0 1.5-4.1 5.7-5.5 5.7-3.8 0-23.7 18-27.9 25.2-9.8 16.7-13.2 26.5-16.1 46.3-.4 2.2-1.5 7.6-2.5 12s-2.1 12-2.5 16.8c-.4 5.9-1.2 9.8-2.5 12.1-4.1 6.8-5.2 12.6-5.6 28.6-.3 8.5-.9 16.8-1.4 18.4-2.6 7.6-.6 19.3 5.1 29.6.5.8 1.6 2.9 2.5 4.7.9 1.8 2.2 3.7 3 4.4.8.6 1.4 1.8 1.4 2.5 0 1.2 47.4 1.4 310 1.4h310V507.1c0-103.9-.3-132-1.3-132.4-1-.4-10.7-7.9-20.7-16-2.8-2.3-15-9.7-15.9-9.7-.5 0-1.1-.4-1.3-.9-.4-1.2-31.1-16.5-36.8-18.4-8.7-2.9-36.6-9.6-42.5-10.3-10.2-1.1-53.2-12.1-57.2-14.7-2.3-1.5-13.4-4.6-25.6-7.3-6.7-1.5-12.6-3-13-3.4-.9-.8 2.8-15.5 4.3-17.5.4-.6 1.5-3.5 2.5-6.5s2.1-5.9 2.6-6.4c1.4-1.5 1.1-10.9-.5-15.4-1-2.9-1.2-5.1-.6-7.4.5-1.8 1.1-5.6 1.4-8.3 1.5-14.9 2.9-24.4 4.1-28 .8-2.2 1.6-5.6 2-7.6.3-2.1 1.3-5.1 2.1-6.9.9-1.7 1.4-4.1 1-5.3-.3-1.1-.1-2.6.4-3.2 2.5-3 .8-33.2-2.2-39-2.1-4.3-10.4-15.3-16.8-22.5-2.2-2.5-6.6-7.9-9.8-12-9.4-12.4-19.5-22.8-21.4-22.2-1.2.3-9.5-5.8-10.2-7.5-.3-.7 1.8.3 4.5 2.3 2.8 1.9 5.3 3.3 5.6 3.1.7-.8-12.9-9.3-23.5-14.6-9.6-4.9-16-7.1-21.7-7.7-5.6-.6-22-3.6-25.2-4.5-2.5-.8-4.1-.6-7.5 1-8.5 3.8-13.1 3.9-14.3.1-.8-2.6-4-3.4-7.5-2-2.5 1-3.2.9-4.5-.4-2-2-3.2-2.1-1.6-.2zm7.1 6.7c0 1.1-.4 1.7-1 1.4-.5-.3-1-1.3-1-2.1s.5-1.4 1-1.4c.6 0 1 .9 1 2.1zm-34.4 4.4c-2.6 1.9-4.2 1.9-2.6 0 .7-.8 2-1.5 2.9-1.5 1.3.1 1.3.3-.3 1.5zM291 66c0 .5-.5 1-1.1 1-.5 0-.7-.5-.4-1 .3-.6.8-1 1.1-1 .2 0 .4.4.4 1zm-36 3.4c0 .3-.4.8-1 1.1-.5.3-1 .1-1-.4 0-.6.5-1.1 1-1.1.6 0 1 .2 1 .4zm-13.5 6.5c-.3.6-1.1 1.1-1.7 1.1-.6 0-.6-.6.2-1.5 1.4-1.7 2.6-1.3 1.5.4zm-54 118.1c.3.5.1 1-.6 1-1 0-1 .3-.1 1.2.7.7 1.2 1.6 1.2 2.1 0 1.3-2.9-1.2-4.1-3.5-.8-1.5-.6-1.8 1-1.8 1.1 0 2.3.4 2.6 1zM427 238.3c1.4 1.2 2.1 1.9 1.5 1.5-.6-.4-2.7-1.4-4.6-2.2-2.4-1.1-2.8-1.5-1.4-1.6 1.1 0 3.1 1 4.5 2.3zm-6.5 24.8c.4 1.1.4 2.3 0 2.7-.7.7-2.5-1.7-2.5-3.6 0-2 1.8-1.4 2.5.9zm-35.7 27.1c2 2 1.3 3.4-1.8 3.6-2.4.2-3-.2-3-1.7 0-1.7 1.1-2.7 3.1-3 .3-.1 1 .4 1.7 1.1zm.2 6.3c-.7.8-1.6 1.5-2.1 1.5s-.9-.7-.9-1.5c0-.9.9-1.5 2.1-1.5 1.8 0 1.9.2.9 1.5zm.5 3.5c.3.5.1 1-.4 1-.6 0-1.1-.5-1.1-1 0-.6.2-1 .4-1 .3 0 .8.4 1.1 1zm-1.8 3.6c-.3.3-1.2.4-1.9.1-.8-.3-.5-.6.6-.6 1.1-.1 1.7.2 1.3.5zm-121.4 38.2l1.9 3.2-2.4 2c-1.2 1.1-3.5 1.9-5 2-1.5 0-3 .4-3.3 1-.8 1.3-4.5 1.3-6.5 0-1.3-.9-1.3-1.1 0-2.1 1.1-.8 1.2-1.2.2-1.6-1.7-.7-.5-2.3 1.3-1.7.9.4 1.7-.1 2.1-1.2 2-5.7 8.8-6.6 11.7-1.6zm24.7 15.6c0 1.1-1.9 1.5-2.5.6-.3-.5.1-1 .9-1 .9 0 1.6.2 1.6.4zm30.3 10.2c-.8.4-.5 1.6.9 4.1 1.7 2.8 1.8 3.7.8 4.3-.7.4-2.3 3.2-3.6 6.2-2.8 6.6-5.2 7.3-8.7 2.6-4.5-6-4.4-7.2 1-12.7 3.7-3.8 5.5-5 7.8-5 1.7.1 2.5.3 1.8.5zm-129.2 18.7c-.8.8-1.1.7-1.1-.4 0-.9.3-1.9.7-2.3.4-.4.9-.2 1.1.4.3.7-.1 1.7-.7 2.3zm-28.1 3.2c0 .8-.4 1.5-1 1.5-.5 0-.7-.7-.4-1.5.4-.8.8-1.5 1-1.5.2 0 .4.7.4 1.5zm36.2.7c-.7.7-1.2.8-1.2.2 0-.6.3-1.4.7-1.7.3-.4.9-.5 1.2-.2.2.3-.1 1.1-.7 1.7zm-27.7-.2c.3.5.1 1-.4 1-.6 0-1.1-.5-1.1-1 0-.6.2-1 .4-1 .3 0 .8.4 1.1 1zm46.5 5.4c0 .3-.4.8-1 1.1-.5.3-1 .1-1-.4 0-.6.5-1.1 1-1.1.6 0 1 .2 1 .4zm-12.8 3.8c-.7.7-1.2.8-1.2.2 0-.6.3-1.4.7-1.7.3-.4.9-.5 1.2-.2.2.3-.1 1.1-.7 1.7zm-52.2.2c0 .3-.4.8-1 1.1-.5.3-1 .1-1-.4 0-.6.5-1.1 1-1.1.6 0 1 .2 1 .4zm389.7 7.8c-.3.8-.6.5-.6-.6-.1-1.1.2-1.7.5-1.3.3.3.4 1.2.1 1.9zm-353 3c-.3.8-.6.5-.6-.6-.1-1.1.2-1.7.5-1.3.3.3.4 1.2.1 1.9zm-14.7-.8c0 .3-.4.8-1 1.1-.5.3-1 .1-1-.4 0-.6.5-1.1 1-1.1.6 0 1 .2 1 .4zm38 2.5c0 .6-.4 1.3-1 1.6-.5.3-1-.1-1-.9 0-.9.5-1.6 1-1.6.6 0 1 .4 1 .9zm7 2c0 .5-.7 1.1-1.4 1.4-1 .4-1.3.1-.9-.9.6-1.5 2.3-1.9 2.3-.5zm322.7 3.3c-.3.8-.6.5-.6-.6-.1-1.1.2-1.7.5-1.3.3.3.4 1.2.1 1.9zM169 419.6c0 .8-.4 1.2-1 .9-.5-.3-1-1-1-1.6 0-.5.5-.9 1-.9.6 0 1 .7 1 1.6zm59 1.9c0 .8-.7 1.5-1.5 1.5-.9 0-1.2-.6-.9-1.5.4-.8 1-1.5 1.5-1.5s.9.7.9 1.5zm-24-.1c0 .3-.4.8-1 1.1-.5.3-1 .1-1-.4 0-.6.5-1.1 1-1.1.6 0 1 .2 1 .4zm7 1.6c0 .5-.5 1-1.1 1-.5 0-.7-.5-.4-1 .3-.6.8-1 1.1-1 .2 0 .4.4.4 1zm27.2 5.2c-.7.7-1.2.8-1.2.2 0-.6.3-1.4.7-1.7.3-.4.9-.5 1.2-.2.2.3-.1 1.1-.7 1.7zM137 430.1c0 .5-.4.9-1 .9-.5 0-1-.7-1-1.6 0-.8.5-1.2 1-.9.6.3 1 1 1 1.6zm30.6.6c-1 1-1.9-.5-1-1.8.6-1.1.8-1.1 1.2 0 .2.7.1 1.5-.2 1.8zm8.4-1.2c0 .8-.4 1.5-1 1.5-.5 0-1-.7-1-1.5s.5-1.5 1-1.5c.6 0 1 .7 1 1.5zm22.2 1.7c-.7.7-1.2.8-1.2.2 0-.6.3-1.4.7-1.7.3-.4.9-.5 1.2-.2.2.3-.1 1.1-.7 1.7zm7.8.4c0 .8-.5 1.2-1 .9-.6-.4-.8-1.1-.5-1.6.9-1.4 1.5-1.1 1.5.7zm19.4-.7c.3.5-.1 1.4-.9 2.1-1.3 1-1.5.9-1.5-.9 0-2.1 1.4-2.8 2.4-1.2zM428 432c0 .5-.4 1-1 1-.5 0-1-.5-1-1 0-.6.5-1 1-1 .6 0 1 .4 1 1zm-327.8 2.2c-.7.7-1.2.8-1.2.2 0-1.4 1.2-2.6 1.9-1.9.2.3-.1 1.1-.7 1.7zm112.8-1.3c0 .6-.4 1.3-1 1.6-.5.3-1-.1-1-.9 0-.9.5-1.6 1-1.6.6 0 1 .4 1 .9zm353 .1c0 .5-.4 1-1 1-.5 0-1-.5-1-1 0-.6.5-1 1-1 .6 0 1 .4 1 1zm-441 1.4c0 .3-.4.8-1 1.1-.5.3-1 .1-1-.4 0-.6.5-1.1 1-1.1.6 0 1 .2 1 .4zm424.5 1.5c.3.5.1 1.2-.5 1.6-.5.3-1-.1-1-.9 0-1.8.6-2.1 1.5-.7zM237 437.6c0 .8-.5 1.2-1 .9-.6-.4-.8-1.1-.5-1.6.9-1.4 1.5-1.1 1.5.7zm-62.4 3.1c-1.1 1.1-1.9-.6-1.1-2.4.8-1.7.8-1.7 1.2 0 .3 1 .2 2.1-.1 2.4zM246 439c0 .5-.4 1-1 1-.5 0-1-.5-1-1 0-.6.5-1 1-1 .6 0 1 .4 1 1zm193 1.6c0 .8-.4 1.4-1 1.4-.5 0-1-.9-1-2.1 0-1.1.5-1.7 1-1.4.6.3 1 1.3 1 2.1zm-286-.6c0 .5-.4 1-1 1-.5 0-1-.5-1-1 0-.6.5-1 1-1 .6 0 1 .4 1 1zm48-.1c0 .6-.4 1.3-1 1.6-.5.3-1-.1-1-.9 0-.9.5-1.6 1-1.6.6 0 1 .4 1 .9zm20.6 3.8c-1.1 1.1-1.9-.6-1.1-2.4.8-1.7.8-1.7 1.2 0 .3 1 .2 2.1-.1 2.4zM85 441.4c0 .3-.4.8-1 1.1-.5.3-1 .1-1-.4 0-.6.5-1.1 1-1.1.6 0 1 .2 1 .4zm190 .6c0 .5-.5 1-1.1 1-.5 0-.7-.5-.4-1 .3-.6.8-1 1.1-1 .2 0 .4.4.4 1zm153.7 1.2c-.3.8-.6.5-.6-.6-.1-1.1.2-1.7.5-1.3.3.3.4 1.2.1 1.9zM214 443c0 .5-.5 1-1.1 1-.5 0-.7-.5-.4-1 .3-.6.8-1 1.1-1 .2 0 .4.4.4 1zm74.7.5c0 .8-.4 1.5-.8 1.5-1.4 0-1.7 2.9-.3 3.4.8.3 1.3.2 1-.3-.4-.5.3-.7 1.4-.4 2.4.6 2.6 2.1.4 3-1.2.5-.7 1.1 2.2 2.5 2 1 4.6 1.8 5.6 1.8s1.8.6 1.8 1.4c0 .9.7 1.2 2 .9 1.2-.3 2 0 2 .6 0 .7.4 1 .9.6.5-.3 1.2-.1 1.6.5.3.5-.1 1-.9 1-.9 0-1.6.7-1.6 1.5 0 .9.9 1.5 2.3 1.5 2.2 0 4.4 1.7 6 4.7.5.7.1.9-1.1.6-1.3-.3-2.2.4-3 2.2l-1.3 2.7-3-4.2c-1.8-2.5-3.6-4-4.4-3.6-.8.3-1.7-.4-2.1-1.6-.5-1.6-.8-1.8-1.5-.7-.7 1.2-.9 1.1-.9-.1 0-.8-1.6-2.5-3.6-3.8-1.9-1.2-3.2-2.7-2.9-3.2.3-.6-.1-1-.9-1-.9 0-1.6-.4-1.6-.8 0-.5-1.1-1.4-2.4-2-1.8-.8-2.6-2.2-3.1-5.4-.6-3.4-.9-3.9-1.5-2.3-.4 1.1-.3 2.6.3 3.3.7.9.6 1.1-.7.6-1-.4-1.6-1.7-1.6-3.5 0-2.9.1-2.9 5.8-2.9 4.6 0 5.9.3 5.9 1.5zm132 2.7c-.3.8-.6.5-.6-.6-.1-1.1.2-1.7.5-1.3.3.3.4 1.2.1 1.9zm-8 1c-.3.8-.6.5-.6-.6-.1-1.1.2-1.7.5-1.3.3.3.4 1.2.1 1.9zm-177.7.4c0 .8-.5 1.2-1 .9-.6-.4-.8-1.1-.5-1.6.9-1.4 1.5-1.1 1.5.7zm314.5-.6c.3.5.1 1-.4 1-.6 0-1.1-.5-1.1-1 0-.6.2-1 .4-1 .3 0 .8.4 1.1 1zm-354.3 3.2c-.7.7-1.2.8-1.2.2 0-.6.3-1.4.7-1.7.3-.4.9-.5 1.2-.2.2.3-.1 1.1-.7 1.7zM244 449c0 .5-.5 1-1.1 1-.5 0-.7-.5-.4-1 .3-.6.8-1 1.1-1 .2 0 .4.4.4 1zm-41 1c0 .5-.7 1-1.6 1-.8 0-1.2-.5-.9-1 .3-.6 1-1 1.6-1 .5 0 .9.4.9 1zm237 0c0 .5-.4 1-1 1-.5 0-1-.5-1-1 0-.6.5-1 1-1 .6 0 1 .4 1 1zm-168.3.6c-.3.3-1.2.4-1.9.1-.8-.3-.5-.6.6-.6 1.1-.1 1.7.2 1.3.5zM210 452c0 .5-.5 1-1.1 1-.5 0-.7-.5-.4-1 .3-.6.8-1 1.1-1 .2 0 .4.4.4 1zm10 .5c0 .8-.4 1.5-1 1.5-.5 0-1-.7-1-1.5s.5-1.5 1-1.5c.6 0 1 .7 1 1.5zm78 .1c0 .2-.7.4-1.5.4s-1.5-.4-1.5-1c0-.5.7-.7 1.5-.4.8.4 1.5.8 1.5 1zm290 1.4c0 .5-.4 1-1 1-.5 0-1-.5-1-1 0-.6.5-1 1-1 .6 0 1 .4 1 1zm-21 1c0 .5-.4 1-1 1-.5 0-1-.5-1-1 0-.6.5-1 1-1 .6 0 1 .4 1 1zm-154 1c0 .5-.4 1-1 1-.5 0-1-.5-1-1 0-.6.5-1 1-1 .6 0 1 .4 1 1zm186 0c0 .5-.2 1-.4 1-.3 0-.8-.5-1.1-1-.3-.6-.1-1 .4-1 .6 0 1.1.4 1.1 1zm-366.3 2.2c-.3.8-.6.5-.6-.6-.1-1.1.2-1.7.5-1.3.3.3.4 1.2.1 1.9zm316.8-.3c.3.5.1 1.2-.5 1.6-.5.3-1-.1-1-.9 0-1.8.6-2.1 1.5-.7zm-236 6.1c.3.5.1 1-.4 1-.6 0-1.1-.5-1.1-1 0-.6.2-1 .4-1 .3 0 .8.4 1.1 1zm98.2 1.2c-.3.8-.6.5-.6-.6-.1-1.1.2-1.7.5-1.3.3.3.4 1.2.1 1.9zM585 464c0 .5-.4 1-1 1-.5 0-1-.5-1-1 0-.6.5-1 1-1 .6 0 1 .4 1 1zm-181.3 4.7c-.3 1-.5.4-.5-1.2 0-1.7.2-2.4.5-1.8.2.7.2 2.1 0 3zM559 467c0 .5-.4 1-1 1-.5 0-1-.5-1-1 0-.6.5-1 1-1 .6 0 1 .4 1 1zm39 4.1c0 .5-.4.9-1 .9-.5 0-1-.7-1-1.6 0-.8.5-1.2 1-.9.6.3 1 1 1 1.6zm-286.2.8c.3.8-.1 1.2-.9.9-.7-.2-1.5-1-1.7-1.7-.3-.8.1-1.2.9-.9.7.2 1.5 1 1.7 1.7zM581 474c0 .5-.5 1-1.1 1-.5 0-.7-.5-.4-1 .3-.6.8-1 1.1-1 .2 0 .4.4.4 1zm-197.5 2.9c-.3 1.2 0 2.1 1 2.5.8.3 1.5 1.5 1.5 2.7 0 2 2.3 5.5 6.9 10.4 2.5 2.8 3.3 5.3 2.1 7.4-.7 1.5-.1 2.5 3 5.1 2.2 1.9 4 4.1 4 5.1 0 .9.6 2.2 1.4 2.8 1.2 1 1 1.6-1.3 3.9-3.1 3.3-4.5 3-8.8-1.7-2.3-2.6-2.9-3.8-2.2-4.8.6-.6.8-1.7.4-2.3-.9-1.5-6.4-1.2-8.2.5-1.5 1.6-1.2 4.5.6 4.5.5 0 1.9 1.6 3 3.6 2.6 4.3 2 9.6-1.2 11.9-2.1 1.5-2.1 1.5-.2 1.7 1.1 0 3.2 0 4.8-.1 1.6-.1 2.9.4 3.3 1.2.7 1.9 5.1 0 6-2.6.7-2.2 3-2.2 5.5.2 2.1 1.9 2.1 1.9-1.1 2.6-1.8.4-4 1.5-4.9 2.4-3.3 3.3-6.1 7.9-5.6 9.3.3.7-.8 2-2.5 3-2.2 1.2-3 2.5-3.1 4.5 0 1.5-.3 2.2-.6 1.5-.2-.6-1.1-1.2-1.9-1.2-1.4 0-1.8-1.2-1.5-3.8.2-1.5-1.7-4.2-3-4.2-.5 0-.9.6-.9 1.4 0 1.6-2.7 2.9-4.1 2-.5-.3-.9-1.3-.9-2.2 0-1-1.6-4.8-3.5-8.5-2-3.8-3.5-8.2-3.5-10.1 0-2.1-.6-3.6-1.5-4-.8-.3-1.5-1.5-1.5-2.7 0-1.5-.4-1.9-1.6-1.5-1.1.4-1.8-.1-2.1-1.4-.4-1.6-.9-1.8-2.4-.9-2 1-2.8-.4-.9-1.6.6-.3 1-1.5 1-2.5 0-1.9 5.7-7 7.7-7 .6 0 1.6-.7 2.3-1.5 1.6-1.9-.4-4.7-2.7-3.8-1.2.5-1.4.1-.9-1.5.9-2.6-.6-3.5-3.8-2.2-1.7.6-2.7.6-3.2-.1-.6-1.1-3.8 4.6-4.9 8.8-.7 3.1-3.1 5.2-5.9 5.3-1.2 0-1.6-.5-1.2-1.5.4-1.2 0-1.4-1.8-.9-3 .7-4.3-1.2-1.3-2 1.8-.5 2-.8.7-1.6-.8-.5-1-1-.4-1 .5 0 1.6.6 2.3 1.2 1 1.1 1.2.9.9-.7-.2-1.1-.6-1.8-.8-1.5-.7.7-3.9-2.3-3.4-3.2.3-.4 1.1-.5 1.9-.2.7.3 2.2.1 3.2-.5 1.4-.8 1.5-1.1.3-1.1s-1-.4.4-1.5c1.8-1.4 1.4-1.5-4.6-1.5-3.7 0-6.9-.4-7.2-.8-.3-.5 1.5-.8 4-.7 3 .1 4.8-.3 5.1-1.2.7-1.8 3-1.6 3.7.3.9 2.4 4.9 1.4 5.1-1.3.2-2.7-.2-2.3 5.5-5.2l4.6-2.4 2.7 2.5c1.5 1.4 2.7 2.8 2.7 3.2 0 1.1 5.4 9 7 10.3 2.5 2.1 6.1 2.7 7.1 1.2 1.5-2.4 1.1-7.9-.6-7.9-.8 0-1.5-.7-1.5-1.5 0-1.9-1-1.9-3.6 0-2 1.3-2.2 1.2-3.3-2.4-1.5-5.3-1.4-6.1.9-6.1 1.3 0 2.8-1.2 3.8-3 1.9-3.3 4.7-4.2 3.7-1.1zm-71.8 2.3c-.3.7-.5.2-.5-1.2s.2-1.9.5-1.3c.2.7.2 1.9 0 2.5zm279.3-1.6c0 .8-.4 1.2-1 .9-.5-.3-1-1-1-1.6 0-.5.5-.9 1-.9.6 0 1 .7 1 1.6zm-32 1c0 .8-.4 1.2-1 .9-.5-.3-1-1-1-1.6 0-.5.5-.9 1-.9.6 0 1 .7 1 1.6zm-191.3 1.6c-.3.8-.6.5-.6-.6-.1-1.1.2-1.7.5-1.3.3.3.4 1.2.1 1.9zM550 480c0 .5-.2 1-.4 1-.3 0-.8-.5-1.1-1-.3-.6-.1-1 .4-1 .6 0 1.1.4 1.1 1zm-279 2.4c0 .3-.4.8-1 1.1-.5.3-1 .1-1-.4 0-.6.5-1.1 1-1.1.6 0 1 .2 1 .4zm264 1.6c0 .5-.4 1-1 1-.5 0-1-.5-1-1 0-.6.5-1 1-1 .6 0 1 .4 1 1zm42.2 1.2c-.7.7-1.2.8-1.2.2 0-1.4 1.2-2.6 1.9-1.9.2.3-.1 1.1-.7 1.7zM515 485c0 .5-.5 1-1.1 1-.5 0-.7-.5-.4-1 .3-.6.8-1 1.1-1 .2 0 .4.4.4 1zm82 1c0 .5-.4 1-1 1-.5 0-1-.5-1-1 0-.6.5-1 1-1 .6 0 1 .4 1 1zm-91.3 2.2c-.3.8-.6.5-.6-.6-.1-1.1.2-1.7.5-1.3.3.3.4 1.2.1 1.9zm-176.4-.5c-.7.2-2.1.2-3 0-1-.3-.4-.5 1.2-.5 1.7 0 2.4.2 1.8.5zm230.7.7c0 .3-.4.8-1 1.1-.5.3-1 .1-1-.4 0-.6.5-1.1 1-1.1.6 0 1 .2 1 .4zm-10.3 2.8c-.3.8-.6.5-.6-.6-.1-1.1.2-1.7.5-1.3.3.3.4 1.2.1 1.9zm-6.7.8c0 .5-.5 1-1.1 1-.5 0-.7-.5-.4-1 .3-.6.8-1 1.1-1 .2 0 .4.4.4 1zm-8 2.6c0 .8-.5 1.2-1 .9-.6-.4-.8-1.1-.5-1.6.9-1.4 1.5-1.1 1.5.7zm-28 3.4c0 .5-.4 1-1 1-.5 0-1-.5-1-1 0-.6.5-1 1-1 .6 0 1 .4 1 1zm-9 1c0 .5-.5 1-1.1 1-.5 0-.7-.5-.4-1 .3-.6.8-1 1.1-1 .2 0 .4.4.4 1zm-134.5 3.1c-1 1.5-2.5 1-1.9-.6.4-.8 1-1.2 1.5-.9.5.3.7 1 .4 1.5zm178.2 2.1c-.3.8-.6.5-.6-.6-.1-1.1.2-1.7.5-1.3.3.3.4 1.2.1 1.9zm-6.7.8c0 .5-.4 1-1 1-.5 0-1-.5-1-1 0-.6.5-1 1-1 .6 0 1 .4 1 1zm-198.6 2.6c.4 1 1.4 1.4 2.6 1.1 1.1-.3 1.8-.1 1.4.4-1.2 2-6.4.2-6.4-2.3 0-1.4 1.8-.8 2.4.8zM516 507c0 .5-.4 1-1 1-.5 0-1-.5-1-1 0-.6.5-1 1-1 .6 0 1 .4 1 1zm-185 1c0 .5-.7 1-1.5 1s-1.5-.5-1.5-1c0-.6.7-1 1.5-1s1.5.4 1.5 1zm25 0c0 .5-.4 1-1 1-.5 0-1-.5-1-1 0-.6.5-1 1-1 .6 0 1 .4 1 1zm99 1.5c-.7.8-2.1 1.5-3.2 1.5-1.7 0-1.8-.3-.8-1.5.7-.8 2.1-1.5 3.2-1.5 1.7 0 1.8.3.8 1.5zm95.7 3.7c-.3.8-.6.5-.6-.6-.1-1.1.2-1.7.5-1.3.3.3.4 1.2.1 1.9zm-15.7 2.2c0 .3-.4.8-1 1.1-.5.3-1 .1-1-.4 0-.6.5-1.1 1-1.1.6 0 1 .2 1 .4zm-9 1.6c0 .5-.5 1-1.1 1-.5 0-.7-.5-.4-1 .3-.6.8-1 1.1-1 .2 0 .4.4.4 1zm-128.4 8.7c-1.4 1.5-2.9 2.4-3.3 1.9-.4-.4.3-1.6 1.7-2.6 3.6-2.8 4.5-2.4 1.6.7zm189.9 5.3c.3.5.1 1-.4 1-.6 0-1.1-.5-1.1-1 0-.6.2-1 .4-1 .3 0 .8.4 1.1 1zm-185.7 14.3c1-.2 2.8 0 4.2.6 2.4.9 2.4 1 .3 1-1.3.1-2.3.5-2.3 1 0 1.8-6.4 4.1-10.9 3.9-3.7-.1-3.9-.2-1.3-.5 1.7-.2 3.2-.9 3.2-1.5 0-1.7 4.5-6.6 4.8-5.2.2.6 1.1 1 2 .7zm-1.8 8.6c0 .6-1.7.7-3.7.4-5.2-.8-5.4-1.3-.5-1.3 2.3 0 4.2.4 4.2.9zm-14.2 36.3c-.2.6-1.5 1.8-2.8 2.7-1.3.9-2.2 1.1-1.9.6.3-.6.9-1.8 1.2-2.8.7-1.9 4.1-2.4 3.5-.5zm15.5 4.3c-.3.9-.8 1.4-1 1.1-.3-.3-.2-.9.2-1.5.9-1.6 1.5-1.3.8.4zm-16.3-.1c0 .3-.4.8-1 1.1-.5.3-1 .1-1-.4 0-.6.5-1.1 1-1.1.6 0 1 .2 1 .4zm-8.5 3.8c-.8 4.1-3.8 12.3-5.2 14.3-1.3 1.9-1.4 1.8-.7-1 .4-1.7 1.3-4.8 2.1-7s1.5-4.5 1.6-5c.3-1.3 1.7-3.5 2.2-3.5.2 0 .2 1 0 2.2zm5.1 3c-.3 2.4-1.3 5-2.6 6.2-2.1 2-2.2 2-1.2.1 1.2-2.4 1.2-2.5 1.2-7 0-2.5.4-3.5 1.5-3.5 1.3 0 1.5.9 1.1 4.2zm18.5-.5c-1.2 2-1.4 1.4-.5-1.2.4-.9.9-1.4 1.1-1.1.3.2 0 1.3-.6 2.3zm-32.8 9.8c-.3.9-.8 1.4-1 1.1-.3-.3-.2-.9.2-1.5.9-1.6 1.5-1.3.8.4zm8.1 8.9c-.9 1.4-2 2.6-2.5 2.6-1.7 0-.9-3 1.3-5.2 2.7-2.7 3.6-.9 1.2 2.6zm11.6 10c0 .2-.7.7-1.6 1-.8.3-1.2.2-.9-.4.6-1 2.5-1.4 2.5-.6zm-4.7 1.3c.4.3-.2 1.3-1.4 2.1-2.4 1.7-3.7.9-1.9-1.3 1.4-1.6 2.3-1.9 3.3-.8zM375 632c0 .5-.4 1-1 1-.5 0-1-.5-1-1 0-.6.5-1 1-1 .6 0 1 .4 1 1z"/><path d="M284 450c0 .4.9 1 2 1.3 1.1.3 2 .2 2-.3 0-.4-.9-1-2-1.3-1.1-.3-2-.2-2 .3zM300.5 461.1c-1 1.5.3 2.5 1.6 1.2.7-.7.7-1.3.1-1.7-.6-.3-1.4-.1-1.7.5zM373.7 516.8c-2.5.5-1.9 5 .9 6.8 1.6 1.1 2.4 1.2 3.7.1 1.5-1 1.6-1.6.5-3.9-1.4-3-2.4-3.6-5.1-3zM375.1 529.6c-1.3 3-.7 4.6 1.6 3.7 1.2-.5 1.5-.2 1 1-.3.8.1 2.1.8 2.7 1.2 1 1.6.9 2.1-.6.3-1.1 1-2.7 1.4-3.6.7-1.3.3-2.2-1.7-3.7-3.3-2.7-3.7-2.6-5.2.5zM385 534.5c-2.1 1.2-2.2 1.5-.7 2.1 2.3.8 4.7-.2 4.7-2.1 0-1.8-.7-1.8-4 0zM188.7 251.7c-.4.3-.7 1.9-.7 3.5 0 2.6.8 3.2 7.4 6.4 4 2 8.9 4.9 10.7 6.5 3.4 2.9 3.4 2.9.6 1.9-3.5-1.2-7-1.3-6.3-.1.3.5-.1 1.4-.9 2.1-2.1 1.7-1.9 2.3 1 3.7 1.4.6 2.5.7 2.5.2 0-2.1 1.9-.7 2.9 2.1 1.1 3.4 4.9 4.2 7.1 1.5 1.4-1.7 7-2 7-.4 0 .6.9.9 2 .6 1-.3 2-.2 2.2.3.2.4 2.3 1 4.8 1.3 4.2.7 4.4.6 2.5-.8-1.7-1.4-1.8-1.7-.5-2.5s1.1-1.2-.8-2.5c-1.2-.9-2-2-1.7-2.5.5-.9-1.4-1.9-11.5-6-3-1.2-6.8-3.2-8.5-4.5-1.6-1.2-5-3.2-7.5-4.5-2.5-1.2-5.6-3.3-6.9-4.6-2.4-2.4-4.2-3-5.4-1.7zM247.2 309.2c.3.7 1.5 1.5 2.7 1.6 1.6.3 2.2-.1 1.9-1-.3-.7-1.5-1.5-2.7-1.6-1.6-.3-2.2.1-1.9 1zM221.5 367c-.9 1.5.4 3 2.6 3 2.3 0 2.6-2.5.3-3.4-2.1-.8-2.2-.8-2.9.4z"/></svg>